# xmcd CD database file
#
# Track frame offsets:
#	150
#	7474
#	27405
#	57798
#	77596
#	91117
#	138469
#	158167
#	183325
#	201184
#
# Disc length: 3219 seconds
#
# Revision: 0
# Processed by: cddbd v1.5.2PL0 Copyright (c) Steve Scherf et al.
# Submitted via: CDex 1.51
#
DISCID=7e0c910a
DTITLE=Verülf - Territorial [CD 1)
DYEAR=2010
DGENRE=New Age
TTITLE0=Tact
TTITLE1=Signals
TTITLE2=Colour and Static
TTITLE3=U and Every 1
TTITLE4=He Lived In A World Of His Dreams
TTITLE5=Shot With Gold
TTITLE6=Haunt Tokyo
TTITLE7=My Body, Divine
TTITLE8=Twelve Doors
TTITLE9=American Statesman
EXTD=YEAR: 2010
EXTT0=
EXTT1=
EXTT2=
EXTT3=
EXTT4=
EXTT5=
EXTT6=
EXTT7=
EXTT8=
EXTT9=
PLAYORDER=
